nColumns=19
nRows=56
DataType=double
version=3
OpenSimVersion=4.1
endheader
time	ground_force_calcn_r_vx	ground_force_calcn_r_vy	ground_force_calcn_r_vz	ground_force_calcn_r_px	ground_force_calcn_r_py	ground_force_calcn_r_pz	ground_force_calcn_r_mx	ground_force_calcn_r_my	ground_force_calcn_r_mz	ground_force_calcn_l_vx	ground_force_calcn_l_vy	ground_force_calcn_l_vz	ground_force_calcn_l_px	ground_force_calcn_l_py	ground_force_calcn_l_pz	ground_force_calcn_l_mx	ground_force_calcn_l_my	ground_force_calcn_l_mz
9.42	4.26801	415.326	-13.156	-0.238568	0	-0.454908	-0.00770972	-0.750243	0.0237649	-1.04341	75.2881	8.47006	-0.150077	0	-0.845362	-0.00988463	0.713231	0.0802399
9.43	4.1024	414.439	-13.7017	-0.238189	0	-0.454683	-0.00738008	-0.745561	0.0246488	-1.09942	75.451	9.06921	-0.150764	0	-0.845886	-0.0106886	0.733538	0.0881713
9.44	3.83109	413.817	-14.2201	-0.237761	0	-0.454473	-0.00679619	-0.734094	0.0252259	-1.16614	75.6378	9.6901	-0.15147	0	-0.846402	-0.0115824	0.751253	0.0962445
9.45	3.45316	413.491	-14.7057	-0.237281	0	-0.454277	-0.00598522	-0.716687	0.0254888	-1.24725	75.8403	10.3152	-0.152174	0	-0.84689	-0.0126051	0.766463	0.104248
9.46	2.97734	413.494	-15.1534	-0.236754	0	-0.454095	-0.00500125	-0.694575	0.0254542	-1.34667	76.0534	10.9248	-0.152851	0	-0.847334	-0.0137996	0.779332	0.111948
9.47	2.42326	413.87	-15.5584	-0.236189	0	-0.453928	-0.00391951	-0.669415	0.0251649	-1.46806	76.2749	11.4986	-0.153482	0	-0.847714	-0.0152086	0.790182	0.119122
9.48	1.82035	414.666	-15.9162	-0.235599	0	-0.453777	-0.00282337	-0.643148	0.0246861	-1.61406	76.5049	12.0169	-0.15405	0	-0.848014	-0.0168669	0.799475	0.125577
9.49	1.20309	415.928	-16.2235	-0.235002	0	-0.453641	-0.00178673	-0.617701	0.0240937	-1.78573	76.7442	12.4625	-0.154534	0	-0.848226	-0.0187943	0.807711	0.131164
9.5	0.605947	417.688	-16.4775	-0.234414	0	-0.45352	-0.000862892	-0.594804	0.0234647	-1.98232	76.9929	12.8229	-0.154924	0	-0.848345	-0.0209942	0.815408	0.135803
9.51	0.0599161	419.954	-16.6792	-0.233848	0	-0.453415	-8.21605e-05	-0.575866	0.0228715	-2.20146	77.2479	13.0913	-0.155212	0	-0.848371	-0.0234543	0.822999	0.139475
9.52	-0.4106	422.7	-16.8338	-0.233313	0	-0.453324	0.000545814	-0.561898	0.0223773	-2.43924	77.5012	13.2668	-0.155393	0	-0.848315	-0.0261474	0.830772	0.142213
9.53	-0.790085	425.87	-16.9512	-0.232813	0	-0.453244	0.00102671	-0.553413	0.0220278	-2.69015	77.7398	13.3533	-0.15547	0	-0.848192	-0.0290298	0.8389	0.144098
9.54	-1.0715	429.385	-17.0451	-0.232347	0	-0.453173	0.00137349	-0.550403	0.0218491	-2.94766	77.9462	13.3592	-0.155451	0	-0.848017	-0.0320455	0.84739	0.145235
9.55	-1.25464	433.145	-17.1318	-0.231911	0	-0.453106	0.00159985	-0.55232	0.0218454	-3.20447	78.1002	13.2953	-0.155347	0	-0.847815	-0.035127	0.856124	0.145742
9.56	-1.34456	437.044	-17.2269	-0.231502	0	-0.453041	0.00171702	-0.558111	0.021999	-3.45229	78.1804	13.1744	-0.155166	0	-0.847606	-0.0381897	0.86484	0.145737
9.57	-1.35006	440.973	-17.3425	-0.231114	0	-0.452974	0.00173368	-0.566276	0.0222704	-3.68248	78.1667	13.0109	-0.154922	0	-0.847406	-0.0411383	0.873229	0.145349
9.58	-1.28239	444.825	-17.4831	-0.230745	0	-0.452906	0.00165779	-0.575041	0.022601	-3.88689	78.0443	12.8197	-0.154624	0	-0.847233	-0.0438766	0.880992	0.144713
9.59	-1.15317	448.503	-17.6428	-0.230394	0	-0.452838	0.00149804	-0.582631	0.022919	-4.05842	77.8071	12.616	-0.154288	0	-0.847095	-0.0463031	0.887711	0.143938
9.6	-0.971512	451.928	-17.8054	-0.230062	0	-0.452772	0.00126281	-0.587435	0.0231443	-4.19212	77.462	12.4137	-0.153925	0	-0.846999	-0.0483254	0.892957	0.143101
9.61	-0.741824	455.046	-17.9486	-0.229756	0	-0.452713	0.000958918	-0.588214	0.0232012	-4.28583	77.0283	12.2241	-0.153546	0	-0.846947	-0.0498826	0.896528	0.142275
9.62	-0.463236	457.822	-18.0491	-0.229484	0	-0.452666	0.000591086	-0.584177	0.0230305	-4.34015	76.5364	12.0558	-0.153168	0	-0.846934	-0.0509496	0.898473	0.141525
9.63	-0.132314	460.24	-18.0886	-0.229253	0	-0.452633	0.000165309	-0.575007	0.0225992	-4.35856	76.0243	11.915	-0.152803	0	-0.846955	-0.0515428	0.899036	0.140903
9.64	0.252402	462.296	-18.0573	-0.229068	0	-0.452616	-0.000306126	-0.560696	0.0219008	-4.34741	75.5337	11.8059	-0.15247	0	-0.847006	-0.0517185	0.898578	0.140447
9.65	0.687681	463.993	-17.9567	-0.22893	0	-0.452614	-0.000802453	-0.541432	0.0209536	-4.31494	75.1073	11.7313	-0.152185	0	-0.84708	-0.0515593	0.897458	0.140178
9.66	1.16633	465.329	-17.7992	-0.228837	0	-0.452623	-0.00129735	-0.517605	0.0197988	-4.26971	74.7859	11.6936	-0.151964	0	-0.847172	-0.0511573	0.896043	0.140106
9.67	1.6783	466.306	-17.6058	-0.228783	0	-0.45264	-0.00176254	-0.489713	0.0184895	-4.21934	74.6054	11.6941	-0.151817	0	-0.847275	-0.050598	0.894662	0.140235
9.68	2.21232	466.926	-17.4008	-0.228761	0	-0.452659	-0.00217145	-0.458299	0.0170793	-4.1701	74.5939	11.7337	-0.15175	0	-0.847379	-0.0499544	0.893574	0.14056
9.69	2.75641	467.197	-17.2071	-0.228761	0	-0.452676	-0.00250188	-0.424055	0.0156182	-4.12681	74.7705	11.8124	-0.151762	0	-0.847477	-0.0492866	0.892985	0.141075
9.7	3.29656	467.141	-17.0415	-0.228773	0	-0.452688	-0.00273615	-0.387728	0.0141445	-4.09316	75.1444	11.9298	-0.15185	0	-0.847563	-0.0486449	0.893049	0.141778
9.71	3.81643	466.793	-16.9126	-0.228785	0	-0.452694	-0.00286255	-0.350123	0.0126855	-4.0715	75.7153	12.0845	-0.15201	0	-0.847629	-0.0480682	0.893898	0.14267
9.72	4.29752	466.204	-16.8214	-0.228788	0	-0.452693	-0.00287701	-0.312104	0.0112612	-4.06263	76.474	12.2736	-0.152232	0	-0.847674	-0.0475817	0.895667	0.143749
9.73	4.72017	465.441	-16.7638	-0.228774	0	-0.452687	-0.0027839	-0.274512	0.00988712	-4.06599	77.4045	12.4929	-0.152505	0	-0.847698	-0.0471954	0.898464	0.14501
9.74	5.06688	464.572	-16.7326	-0.228735	0	-0.452675	-0.00259801	-0.238207	0.00857955	-4.0802	78.4863	12.7367	-0.152819	0	-0.847702	-0.0469109	0.902372	0.146437
9.75	5.32672	463.668	-16.7197	-0.228671	0	-0.452663	-0.00234389	-0.204026	0.0073571	-4.10369	79.6961	12.9989	-0.153161	0	-0.847692	-0.0467287	0.907501	0.148019
9.76	5.49734	462.787	-16.7174	-0.228582	0	-0.452649	-0.00205195	-0.172741	0.00624	-4.13478	81.0085	13.2731	-0.153521	0	-0.847671	-0.0466461	0.913889	0.14974
9.77	5.58316	461.975	-16.7193	-0.228471	0	-0.452636	-0.00175306	-0.145056	0.00524971	-4.17195	82.3971	13.5532	-0.153887	0	-0.847648	-0.0466562	0.921473	0.15157
9.78	5.59209	461.257	-16.7203	-0.228339	0	-0.452625	-0.00147411	-0.12159	0.00440759	-4.21365	83.8359	13.8336	-0.154247	0	-0.847632	-0.0467469	0.930089	0.153473
9.79	5.5336	460.638	-16.7178	-0.22819	0	-0.452616	-0.00123491	-0.102799	0.00373086	-4.25841	85.3003	14.1098	-0.154594	0	-0.847627	-0.0468988	0.939432	0.155394
9.8	5.41742	460.102	-16.7124	-0.228024	0	-0.45261	-0.00104689	-0.0889124	0.00322959	-4.30519	86.7667	14.378	-0.154921	0	-0.847641	-0.0470874	0.948999	0.157257
9.81	5.25109	459.623	-16.7077	-0.227837	0	-0.452608	-0.00091227	-0.0798501	0.00290261	-4.3535	88.2135	14.6353	-0.155219	0	-0.847676	-0.0472864	0.958148	0.158964
9.82	5.03807	459.163	-16.708	-0.227629	0	-0.452607	-0.000825405	-0.0752263	0.00273733	-4.40306	89.6196	14.8796	-0.155482	0	-0.847732	-0.047471	0.966222	0.160422
9.83	4.77722	458.688	-16.7171	-0.227393	0	-0.452611	-0.000775091	-0.0744211	0.0027123	-4.45343	90.9628	15.1084	-0.155706	0	-0.847805	-0.0476206	0.972667	0.161554
9.84	4.46462	458.17	-16.7355	-0.227129	0	-0.452617	-0.000747609	-0.0767214	0.00280239	-4.50392	92.221	15.319	-0.155888	0	-0.847888	-0.0477198	0.977097	0.162307
9.85	4.09729	457.591	-16.7603	-0.226832	0	-0.452627	-0.000728897	-0.0814043	0.00298161	-4.55381	93.3746	15.5083	-0.156024	0	-0.847976	-0.0477577	0.979258	0.162642
9.86	3.67647	456.951	-16.7854	-0.226508	0	-0.45264	-0.000706519	-0.0878138	0.00322571	-4.603	94.4084	15.6737	-0.156112	0	-0.848063	-0.0477373	0.979102	0.16255
9.87	3.21071	456.258	-16.8033	-0.226166	0	-0.452658	-0.000671804	-0.0954668	0.00351591	-4.65236	95.314	15.8138	-0.156154	0	-0.848145	-0.047678	0.976791	0.162063
9.88	2.71764	455.526	-16.8073	-0.225818	0	-0.452679	-0.000621404	-0.104158	0.00384308	-4.70329	96.0909	15.93	-0.156152	0	-0.848222	-0.0476046	0.972588	0.161236
9.89	2.22201	454.768	-16.7934	-0.22548	0	-0.452707	-0.000556427	-0.113881	0.00420534	-4.75716	96.7458	16.0255	-0.156111	0	-0.848296	-0.0475388	0.96679	0.160144
9.9	1.74962	453.989	-16.7609	-0.225169	0	-0.45274	-0.000480644	-0.124717	0.00460444	-4.81494	97.2914	16.1059	-0.156038	0	-0.848368	-0.0474951	0.959693	0.15887
9.91	1.32194	453.184	-16.7113	-0.224903	0	-0.452779	-0.000399156	-0.136838	0.00504595	-4.8774	97.7452	16.1781	-0.155941	0	-0.848444	-0.0474811	0.951542	0.157492
9.92	0.953696	452.337	-16.6489	-0.224693	0	-0.452823	-0.000317318	-0.150503	0.00553948	-4.94528	98.128	16.25	-0.155828	0	-0.848528	-0.0475002	0.942534	0.156084
9.93	0.652325	451.429	-16.5787	-0.22455	0	-0.452872	-0.000239612	-0.165819	0.00608971	-5.01949	98.4639	16.3302	-0.155709	0	-0.848624	-0.0475499	0.932753	0.154697
9.94	0.41893	450.443	-16.5062	-0.224483	0	-0.452928	-0.000169909	-0.182691	0.00669458	-5.1009	98.7788	16.4271	-0.155592	0	-0.848734	-0.0476238	0.922233	0.153369
9.95	0.24996	449.37	-16.4352	-0.224499	0	-0.452986	-0.000111763	-0.200924	0.00734858	-5.18992	99.0996	16.5478	-0.155481	0	-0.848862	-0.0477098	0.911	0.15212
9.96	0.13962	448.209	-16.3677	-0.224598	0	-0.453049	-6.86267e-05	-0.220305	0.00804514	-5.28688	99.4535	16.6982	-0.155383	0	-0.84901	-0.0477933	0.899058	0.150951
9.97	0.0814674	446.966	-16.3037	-0.224785	0	-0.453115	-4.38459e-05	-0.240558	0.00877467	-5.39244	99.8675	16.8823	-0.155303	0	-0.849179	-0.0478718	0.886581	0.149874
